<svg xmlns="http://www.w3.org/2000/svg" id="Layer_1" viewBox="0 0 4202.7 734.83"><defs><style>      .st0 {        fill: #9b9a9a;      }      .st1 {        fill: none;      }      .st2 {        fill: #d82e28;      }      .st3 {        font-family: TimesNewRomanPSMT, 'Times New Roman';        font-size: 158.94px;      }      .st3, .st4 {        fill: #010101;      }      .st5 {        fill: #d22d28;      }    </style></defs><g><g><path class="st4" d="M809.57,327.58c5.04-.31,9.1-2.65,12.19-6.88,1.98-2.65,4.84-8.6,8.52-17.71l46.82-115.26h5.92l46.92,110.67c5.33,12.37,9.2,20.39,11.87,24.01,2.57,3.59,6.37,5.32,11.09,5.15v5.4h-68.19v-5.4c6.9-.24,11.41-.86,13.53-1.79,2.18-.86,3.25-3.11,3.25-6.73,0-1.62-.55-4.16-1.62-7.51-.65-1.98-1.62-4.39-2.83-7.21l-5.33-12.71h-47.31c-3.06,8.36-5.04,13.79-5.98,16.31-1.79,5.41-2.76,9.35-2.76,11.8,0,3.05,2.01,5.27,6.11,6.65,2.37.76,5.98,1.15,10.76,1.19v5.4h-42.95v-5.4ZM888.62,283.29l-20.32-48.79h-1.76l-18.99,48.79h41.07Z"></path><path class="st4" d="M960.74,327.58c8.03-.03,13.2-1.45,15.64-4.23,2.37-2.76,3.64-6.93,3.64-12.52v-100.09c0-5.71-1.4-9.48-4.2-11.3-2.76-1.76-7.58-2.98-14.57-3.5v-5.38h53.1l41.43,97.52h1.72l41.23-97.52h53.16v5.38c-7.12.52-12,1.84-14.63,3.92-2.67,2.11-3.9,7.17-3.9,15.3v93.21c0,7.72,1.24,12.85,3.9,15.24,2.63,2.36,7.51,3.72,14.63,3.97v5.4h-69.97v-5.4c6.21-.18,10.89-1.25,14.11-3.14,3.19-1.85,4.71-6.02,4.71-12.39v-102.92h-1.53l-51.7,123.84h-5.66l-52.12-121.42h-.94v95.23c0,7.02,1.27,12.23,3.94,15.45,2.57,3.28,8.39,5.04,17.23,5.35v5.4h-49.23v-5.4Z"></path><path class="st4" d="M1160.1,332.98v-5.4c6.02-.18,10.34-.99,12.88-2.44,3.84-2.23,5.82-6.34,5.82-12.36v-102.04c0-6.15-2.02-10.24-6.05-12.36-2.31-1.3-6.54-2.11-12.65-2.44v-5.38h121.39v42.51h-5.17c-2.63-13.59-7.19-22.88-13.63-27.9-6.37-4.97-18.08-7.5-35.06-7.5-6.4,0-10.54.68-12.22,1.98-1.76,1.35-2.67,3.97-2.67,7.97v48.79c12,.13,20.09-2.06,24.39-6.54,4.26-4.49,7.55-12.75,9.79-24.66h5.37v71.2h-5.37c-1.5-12.02-4.61-20.47-9.2-25.33-4.62-4.92-12.98-7.35-24.97-7.35v51.02c0,4.41,1.14,7.47,3.45,9.11,2.34,1.59,7.06,2.37,14.14,2.37,13.46,0,24.42-2.59,32.97-7.82,8.45-5.17,16.07-14.99,22.63-29.33h5.85l-8.55,43.88h-123.14Z"></path><path class="st4" d="M1300.61,327.58c7.15-.31,11.96-1.61,14.6-3.97,2.67-2.36,3.87-7.45,3.87-15.24v-93.21c0-8.13-1.5-13.41-4.61-15.84-2.05-1.64-6.57-2.78-13.85-3.38v-5.38h67.8c14.08,0,25.46,1.56,34.11,4.44,16.88,5.97,25.36,16.7,25.36,32.22,0,11.46-4.46,20.45-13.3,27.02-6.76,4.97-13.88,8.11-21.4,9.49l44.74,59.91c1.2,1.64,2.37,2.73,3.71,3.2,1.33.59,2.89.91,4.84,1.04v5.07h-43.96l-49.2-65.85h0v41.25c0,7.42,1.2,12.41,3.67,14.97,2.47,2.55,7.38,3.99,14.83,4.23v5.4h-71.21v-5.4ZM1382.81,254.53c5.98-3.69,8.97-12.13,8.97-25.45,0-8.16-1.2-14.6-3.38-19.33-3.97-8.03-11.09-12.06-21.46-12.06-5.59,0-9.3.7-10.96,2.15-1.79,1.38-2.66,3.71-2.66,6.88v53.61c13.72-.18,23.6-2.15,29.49-5.79Z"></path><path class="st4" d="M1452.76,327.58c5.95-.13,10.24-.86,12.81-2.11,4.36-2.21,6.4-6.45,6.4-12.68v-102.04c0-6.19-2.01-10.36-6.05-12.44-2.5-1.34-6.86-2.1-13.17-2.36v-5.38h73.65v5.38c-6.57.26-11.05,1.02-13.59,2.21-4.16,2.06-6.15,6.29-6.15,12.58v102.04c0,5.9,1.63,9.8,4.88,11.82,3.35,1.98,8.29,2.98,14.86,2.98v5.4h-73.65v-5.4Z"></path><path class="st4" d="M1639.43,192.8c9.07,3.28,14.05,4.89,15.06,4.89,2.67,0,4.81-1.04,6.47-3.1,1.56-2.05,2.57-4.21,2.99-6.47h5.82v49.3h-5.3c-5.14-10.73-10.24-19.14-15.54-25.35-9.85-11.38-21.01-17.05-33.49-17.05-14.08,0-24.13,6.08-30.04,18.29-5.92,12.13-8.91,28.45-8.91,48.99,0,15.05,1.75,27.51,5.33,37.26,6.44,18.19,18.5,27.31,36.19,27.31,10.79,0,20.94-2.99,30.21-9.01,5.36-3.54,11.67-9.1,18.89-16.78l6.28,5.15c-8.19,9.19-15.41,15.79-21.69,19.9-11.09,7.35-23.41,11.01-37,11.01-20.81,0-38.21-6.16-52.29-18.45-15.58-13.64-23.35-32.06-23.35-55.18s7.48-41.48,22.37-55.64c13.95-13.28,31.09-19.97,51.41-19.97,8.75,0,17.66,1.66,26.6,4.89Z"></path><path class="st4" d="M1687.3,327.58c5.07-.31,9.14-2.65,12.26-6.88,1.95-2.65,4.84-8.6,8.52-17.71l46.86-115.26h5.79l47.02,110.67c5.33,12.37,9.2,20.39,11.84,24.01,2.63,3.59,6.31,5.32,11.12,5.15v5.4h-68.19v-5.4c6.8-.24,11.35-.86,13.46-1.79,2.18-.86,3.25-3.11,3.25-6.73,0-1.62-.52-4.16-1.63-7.51-.71-1.98-1.62-4.39-2.76-7.21l-5.33-12.71h-47.31c-3.09,8.36-5.14,13.79-6.02,16.31-1.82,5.41-2.76,9.35-2.76,11.8,0,3.05,2.05,5.27,6.11,6.65,2.41.76,6.02,1.15,10.7,1.19v5.4h-42.92v-5.4ZM1766.38,283.29l-20.32-48.79h-1.69l-19.02,48.79h41.04Z"></path><path class="st4" d="M1839.06,327.58c7.83-.18,12.88-1.67,15.12-4.47,2.24-2.76,3.38-6.81,3.38-12.27v-99.78c-6.44-7.22-10.44-11.45-11.9-12.68-1.5-1.3-3.61-2.1-6.18-2.42v-5.38h44.58l72.41,88.04h1.07v-61.85c0-7.16-1.3-12.31-3.9-15.3-2.57-3.07-7.74-4.91-15.58-5.51v-5.38h45.29v5.38c-6.6,1.09-10.99,2.55-13.2,4.36-2.24,1.87-3.35,5.95-3.35,12.39v124.18h-5.92l-92.61-112.65h-1.5v82.56c0,6.52.85,11.15,2.7,13.8,2.83,4.34,8.55,6.68,17.27,6.99v5.4h-47.7v-5.4Z"></path><path class="st4" d="M2175.12,207.95c14.47,14.08,21.66,32.18,21.66,54.34s-7.19,40.25-21.66,54.32c-14.18,13.69-31.83,20.53-52.94,20.53-22.57,0-40.94-7.46-55.08-22.49-13.27-14.18-19.84-31.22-19.84-51.18,0-22.18,6.86-40.26,20.74-54.5,14.05-14.39,32.06-21.58,54.17-21.58s38.86,6.85,52.94,20.55ZM2154.66,301.99c3.12-10.18,4.71-23.38,4.71-39.7,0-22.46-3.35-39.3-10.08-50.73-6.7-11.35-15.74-17.07-27.21-17.07-15.97,0-26.86,9.5-32.78,28.54-3.12,10.06-4.59,23.18-4.59,39.26s1.5,29.62,4.68,39.7c5.85,18.72,16.72,28.06,32.68,28.06s26.63-9.35,32.58-28.06Z"></path><path class="st4" d="M2278.94,190.57v5.38c-8.19.26-13.66,1.53-16.36,3.79-2.86,2.24-4.13,7.38-4.13,15.43v70.59c0,10.75,1.24,18.94,3.8,24.83,4.49,10.88,13.37,16.28,26.4,16.28,16.19,0,27.05-5.95,32.81-18.05,3.16-6.55,4.71-15.8,4.71-27.65v-64.4c0-7.6-1.4-12.78-4.1-15.64-2.86-2.81-8.26-4.57-16.39-5.17v-5.38h46.3v5.38c-6.7,1.3-11.12,2.93-13.23,4.73-2.18,1.95-3.35,6.27-3.35,13.02v67.36c0,17.92-4.29,31.8-12.88,41.48-8.72,9.71-22.24,14.6-40.81,14.6-24.13,0-40.71-7.22-49.69-21.69-4.71-7.69-7.09-17.62-7.09-29.73v-70.55c0-7.92-.98-12.89-3.12-14.94-2.08-2.06-6.83-3.45-14.11-4.28v-5.38h71.21Z"></path><path class="st4" d="M2362.02,190.57h126.78l.23,42.51h-6.11c-1.95-15.2-7.68-25.48-17.01-30.81-5.3-3.04-13.2-4.59-23.64-4.89v111c0,7.72,1.33,12.88,4.03,15.43,2.7,2.52,8.35,3.77,16.88,3.77v5.4h-75.05v-5.4c8.23,0,13.69-1.25,16.45-3.82,2.63-2.6,4.03-7.72,4.03-15.38v-111c-10.34.31-18.21,1.85-23.7,4.89-10.05,5.43-15.77,15.74-17.07,30.81h-6.11l.29-42.51Z"></path><path class="st4" d="M2500.35,327.58c6.93-.42,11.58-1.95,14.01-4.33,2.28-2.44,3.51-7.41,3.51-14.88v-93.21c0-7.92-1.3-12.89-3.61-14.96-2.37-2.08-7.03-3.53-13.92-4.26v-5.38h67.86c17.88,0,31.57,2.91,40.84,8.76,9.4,5.82,14.01,15.84,14.01,30.06,0,6.93-1.76,13.36-5.43,19.46-3.71,6.03-9.69,10.96-18.18,14.65-6.31,2.62-12.78,4.18-19.12,4.75-6.34.57-15.8.8-28.32.8v39.33c0,7.72,1.27,12.85,3.9,15.24,2.64,2.36,7.51,3.72,14.57,3.97v5.4h-70.14v-5.4ZM2577.09,257.47c6.63-4.26,9.95-13.41,9.95-27.54,0-9.53-1.66-17.3-4.84-23.22-3.19-5.9-9.33-8.81-18.5-8.81-4.1,0-7.12.49-8.97,1.46-1.79,1.03-2.7,2.94-2.7,5.82v56.57c12.52-.18,20.91-1.61,25.07-4.28Z"></path><path class="st4" d="M2613.9,327.58c5.04-.31,9.17-2.65,12.22-6.88,1.92-2.65,4.81-8.6,8.52-17.71l46.83-115.26h5.75l47.05,110.67c5.27,12.37,9.23,20.39,11.8,24.01,2.57,3.59,6.37,5.32,11.12,5.15v5.4h-68.19v-5.4c6.83-.24,11.38-.86,13.5-1.79,2.18-.86,3.25-3.11,3.25-6.73,0-1.62-.52-4.16-1.59-7.51-.78-1.98-1.66-4.39-2.8-7.21l-5.36-12.71h-47.25c-3.12,8.36-5.14,13.79-5.95,16.31-1.88,5.41-2.8,9.35-2.8,11.8,0,3.05,2.05,5.27,6.08,6.65,2.37.76,5.88,1.15,10.76,1.19v5.4h-42.95v-5.4ZM2692.91,283.29l-20.29-48.79h-1.66l-19.09,48.79h41.04Z"></path><path class="st4" d="M2752.13,190.57h126.88l.23,42.51h-6.02c-2.11-15.2-7.74-25.48-17.17-30.81-5.23-3.04-13.17-4.59-23.57-4.89v111c0,7.72,1.34,12.88,4,15.43,2.73,2.52,8.29,3.77,16.94,3.77v5.4h-75.08v-5.4c8.23,0,13.63-1.25,16.39-3.82,2.7-2.6,4.03-7.72,4.03-15.38v-111c-10.28.31-18.14,1.85-23.7,4.89-10.02,5.43-15.74,15.74-17.04,30.81h-5.98l.1-42.51Z"></path><path class="st4" d="M2890.49,327.58c6.05-.13,10.31-.86,12.88-2.11,4.29-2.21,6.41-6.45,6.41-12.68v-102.04c0-6.19-1.98-10.36-6.08-12.44-2.41-1.34-6.93-2.1-13.2-2.36v-5.38h73.75v5.38c-6.63.26-11.15,1.02-13.69,2.21-4.03,2.06-6.15,6.29-6.15,12.58v102.04c0,5.9,1.69,9.8,4.98,11.82,3.28,1.98,8.22,2.98,14.86,2.98v5.4h-73.75v-5.4Z"></path><path class="st4" d="M2972.56,332.98v-5.4c5.95-.18,10.28-.99,12.81-2.44,3.94-2.23,5.89-6.34,5.89-12.36v-102.04c0-6.15-2.05-10.24-6.11-12.36-2.31-1.3-6.47-2.11-12.59-2.44v-5.38h121.39v42.51h-5.24c-2.67-13.59-7.19-22.88-13.56-27.9-6.44-4.97-18.11-7.5-35.02-7.5-6.5,0-10.5.68-12.29,1.98-1.79,1.35-2.67,3.97-2.67,7.97v48.79c12,.13,20.09-2.06,24.45-6.54,4.2-4.49,7.45-12.75,9.69-24.66h5.4v71.2h-5.4c-1.43-12.02-4.59-20.47-9.17-25.33-4.65-4.92-12.97-7.35-24.97-7.35v51.02c0,4.41,1.17,7.47,3.42,9.11,2.31,1.59,7.02,2.37,14.21,2.37,13.43,0,24.36-2.59,32.91-7.82,8.49-5.17,16.03-14.99,22.6-29.33h5.92l-8.52,43.88h-123.14Z"></path><path class="st4" d="M3113.07,327.58c7.77-.18,12.81-1.67,15.15-4.47,2.18-2.76,3.32-6.81,3.32-12.27v-99.78c-6.44-7.22-10.41-11.45-11.97-12.68-1.4-1.3-3.61-2.1-6.11-2.42v-5.38h44.61l72.45,88.04h1.01v-61.85c0-7.16-1.27-12.31-3.84-15.3-2.63-3.07-7.84-4.91-15.61-5.51v-5.38h45.26v5.38c-6.54,1.09-10.99,2.55-13.17,4.36-2.28,1.87-3.42,5.95-3.42,12.39v124.18h-5.88l-92.58-112.65h-1.5v82.56c0,6.52.88,11.15,2.7,13.8,2.8,4.34,8.58,6.68,17.23,6.99v5.4h-47.67v-5.4Z"></path><path class="st4" d="M3267.39,190.57h126.79l.19,42.51h-6.08c-1.95-15.2-7.64-25.48-17.1-30.81-5.2-3.04-13.14-4.59-23.61-4.89v111c0,7.72,1.3,12.88,4.13,15.43,2.66,2.52,8.29,3.77,16.84,3.77v5.4h-75.18v-5.4c8.26,0,13.72-1.25,16.49-3.82,2.73-2.6,4.1-7.72,4.1-15.38v-111c-10.28.31-18.21,1.85-23.67,4.89-10.15,5.43-15.8,15.74-17.04,30.81h-6.15l.29-42.51Z"></path><path class="st4" d="M3559.39,192.8c9.01,3.28,13.98,4.89,14.99,4.89,2.7,0,4.87-1.04,6.44-3.1,1.63-2.05,2.63-4.21,3.06-6.47h5.85v49.3h-5.33c-5.14-10.73-10.21-19.14-15.51-25.35-9.95-11.38-21.04-17.05-33.49-17.05-14.14,0-24.13,6.08-30.08,18.29-5.85,12.13-8.88,28.45-8.88,48.99,0,15.05,1.72,27.51,5.24,37.26,6.57,18.19,18.66,27.31,36.25,27.31,10.86,0,20.97-2.99,30.24-9.01,5.37-3.54,11.58-9.1,18.89-16.78l6.28,5.15c-8.23,9.19-15.38,15.79-21.66,19.9-11.12,7.35-23.51,11.01-37.07,11.01-20.81,0-38.24-6.16-52.32-18.45-15.51-13.64-23.28-32.06-23.28-55.18s7.45-41.48,22.31-55.64c13.98-13.28,31.15-19.97,51.47-19.97,8.68,0,17.56,1.66,26.6,4.89Z"></path><path class="st4" d="M3607.19,327.58c5.85-.18,9.89-.91,12.36-2.28,4.23-2.14,6.21-6.37,6.21-12.52v-102.04c0-6.15-1.88-10.24-5.92-12.36-2.34-1.3-6.5-2.11-12.65-2.44v-5.38h73.75v5.38c-8.65.26-14.34,1.46-17.17,3.63-2.86,2.06-4.29,7.33-4.29,15.59v99.6c0,4.62,1.24,7.69,3.68,9.22,2.4,1.53,7.22,2.26,14.27,2.26,12.55,0,23.41-2.78,31.93-8.39,8.58-5.54,16-16.49,22.27-32.68h6.15l-8.58,47.8h-122v-5.4Z"></path><path class="st4" d="M3747.37,327.58c5.92-.13,10.21-.86,12.88-2.11,4.2-2.21,6.31-6.45,6.31-12.68v-102.04c0-6.19-1.95-10.36-6.01-12.44-2.5-1.34-6.96-2.1-13.17-2.36v-5.38h73.65v5.38c-6.6.26-11.15,1.02-13.63,2.21-4.1,2.06-6.15,6.29-6.15,12.58v102.04c0,5.9,1.66,9.8,4.94,11.82,3.32,1.98,8.22,2.98,14.83,2.98v5.4h-73.65v-5.4Z"></path><path class="st4" d="M3829.35,327.58c7.77-.18,12.88-1.67,15.09-4.47,2.34-2.76,3.38-6.81,3.38-12.27v-99.78c-6.41-7.22-10.37-11.45-11.9-12.68-1.53-1.3-3.58-2.1-6.15-2.42v-5.38h44.64l72.38,88.04h1.01v-61.85c0-7.16-1.2-12.31-3.87-15.3-2.63-3.07-7.8-4.91-15.54-5.51v-5.38h45.2v5.38c-6.54,1.09-10.96,2.55-13.17,4.36-2.21,1.87-3.32,5.95-3.32,12.39v124.18h-5.85l-92.74-112.65h-1.43v82.56c0,6.52.88,11.15,2.67,13.8,2.83,4.34,8.58,6.68,17.26,6.99v5.4h-47.67v-5.4Z"></path><path class="st4" d="M3981.43,327.58c6.05-.13,10.31-.86,12.88-2.11,4.23-2.21,6.44-6.45,6.44-12.68v-102.04c0-6.19-1.95-10.36-6.15-12.44-2.41-1.34-6.8-2.1-13.17-2.36v-5.38h73.71v5.38c-6.6.26-11.12,1.02-13.62,2.21-4.07,2.06-6.18,6.29-6.18,12.58v102.04c0,5.9,1.66,9.8,4.94,11.82,3.38,1.98,8.26,2.98,14.86,2.98v5.4h-73.71v-5.4Z"></path><path class="st4" d="M4168.17,192.8c8.91,3.28,14.01,4.89,15.05,4.89,2.6,0,4.78-1.04,6.44-3.1,1.62-2.05,2.57-4.21,2.99-6.47h5.92v49.3h-5.4c-5.04-10.73-10.24-19.14-15.54-25.35-9.82-11.38-21.01-17.05-33.46-17.05-14.14,0-24.19,6.08-30.11,18.29-5.92,12.13-8.85,28.45-8.85,48.99,0,15.05,1.79,27.51,5.2,37.26,6.5,18.19,18.6,27.31,36.32,27.31,10.79,0,20.84-2.99,30.18-9.01,5.4-3.54,11.7-9.1,18.89-16.78l6.34,5.15c-8.26,9.19-15.51,15.79-21.72,19.9-11.09,7.35-23.47,11.01-37.04,11.01-20.81,0-38.18-6.16-52.29-18.45-15.54-13.64-23.38-32.06-23.38-55.18s7.48-41.48,22.37-55.64c13.95-13.28,31.15-19.97,51.44-19.97,8.81,0,17.65,1.66,26.63,4.89Z"></path></g><rect class="st2" x="809.02" y="404.69" width="3393.68" height="17.71"></rect><text class="st3" transform="translate(1434.98 607.81)"><tspan x="0" y="0">(AMERICAN HOSPITAL, INC.)</tspan></text></g><g><rect class="st1" x="-132.32" width="699.28" height="734.83"></rect><polygon class="st5" points="481.57 734.83 269.48 734.83 269.48 680.69 281.3 680.69 281.3 722.99 469.74 722.99 469.74 509.12 686.07 509.12 686.07 304.62 473.44 304.62 473.44 91.99 281.3 91.99 281.3 129.34 269.48 129.34 269.48 80.16 485.28 80.16 485.28 292.78 697.91 292.78 697.91 520.96 481.57 520.96 481.57 734.83"></polygon><polygon class="st0" points="26.91 455.71 26.91 485.37 38.04 485.37 249.43 485.37 249.43 693.05 437.33 693.05 437.33 482.9 649.96 482.9 649.96 330.84 441.04 330.84 441.04 118.22 249.43 118.22 249.43 330.84 26.91 329.6 26.91 359.27 249.43 359.27 249.43 371.64 26.91 371.64 26.91 400.07 306.29 400.07 306.29 412.43 26.91 412.43 26.91 443.34 350.79 443.34 350.79 455.71 26.91 455.71"></polygon></g></svg>